<svg id="svg" xmlns="http://www.w3.org/2000/svg" xmlns:xlink="http://www.w3.org/1999/xlink" width="400" height="414.8837209302325" viewBox="0, 0, 400,414.8837209302325"><g id="svgg"><path id="path0" d="M300.465 101.395 C 300.465 102.010,264.629 102.326,194.817 102.326 C 104.496 102.326,88.977 102.518,87.841 103.654 C 86.790 104.705,86.512 108.403,86.512 121.329 L 86.512 137.674 194.419 137.674 L 302.326 137.674 302.326 133.953 C 302.326 131.907,302.744 130.233,303.256 130.233 C 304.840 130.233,304.464 103.401,302.857 101.794 C 301.299 100.236,300.465 100.097,300.465 101.395 M177.674 166.512 C 177.674 167.028,175.194 167.442,172.093 167.442 C 168.992 167.442,166.512 167.855,166.512 168.372 C 166.512 168.884,164.837 169.302,162.791 169.302 C 160.744 169.302,159.070 169.721,159.070 170.233 C 159.070 170.744,157.814 171.163,156.279 171.163 C 154.744 171.163,153.488 171.581,153.488 172.093 C 153.488 172.605,152.233 173.023,150.698 173.023 C 149.163 173.023,147.907 173.442,147.907 173.953 C 147.907 174.465,147.070 174.884,146.047 174.884 C 145.023 174.884,144.186 175.302,144.186 175.814 C 144.186 176.326,143.349 176.744,142.326 176.744 C 141.302 176.744,140.465 177.163,140.465 177.674 C 140.465 178.186,139.628 178.605,138.605 178.605 C 137.581 178.605,136.744 179.023,136.744 179.535 C 136.744 180.047,135.999 180.465,135.089 180.465 C 134.179 180.465,132.831 181.302,132.093 182.326 C 131.356 183.349,130.175 184.186,129.470 184.186 C 128.765 184.186,127.015 185.442,125.581 186.977 C 124.148 188.512,122.509 189.767,121.939 189.767 C 120.588 189.767,105.116 205.239,105.116 206.590 C 105.116 207.160,103.860 208.799,102.326 210.233 C 100.791 211.666,99.535 213.416,99.535 214.121 C 99.535 214.826,98.698 216.007,97.674 216.744 C 96.651 217.482,95.814 218.830,95.814 219.740 C 95.814 220.651,95.395 221.395,94.884 221.395 C 94.372 221.395,93.953 222.233,93.953 223.256 C 93.953 224.279,93.535 225.116,93.023 225.116 C 92.512 225.116,92.093 225.953,92.093 226.977 C 92.093 228.000,91.674 228.837,91.163 228.837 C 90.651 228.837,90.233 229.674,90.233 230.698 C 90.233 231.721,89.814 232.558,89.302 232.558 C 88.791 232.558,88.372 234.233,88.372 236.279 C 88.372 238.326,87.953 240.000,87.442 240.000 C 86.930 240.000,86.512 241.674,86.512 243.721 C 86.512 245.767,86.093 247.442,85.581 247.442 C 85.070 247.442,84.651 248.698,84.651 250.233 C 84.651 251.767,84.233 253.023,83.721 253.023 C 83.209 253.023,82.791 254.698,82.791 256.744 C 82.791 258.791,82.372 260.465,81.860 260.465 C 81.282 260.465,80.930 265.736,80.930 274.419 C 80.930 283.101,81.282 288.372,81.860 288.372 C 82.412 288.372,82.791 291.783,82.791 296.744 C 82.791 301.705,83.170 305.116,83.721 305.116 C 84.233 305.116,84.651 306.372,84.651 307.907 C 84.651 309.442,85.070 310.698,85.581 310.698 C 86.093 310.698,86.512 311.953,86.512 313.488 C 86.512 315.023,86.930 316.279,87.442 316.279 C 87.953 316.279,88.372 317.116,88.372 318.140 C 88.372 319.163,88.791 320.000,89.302 320.000 C 89.814 320.000,90.233 320.837,90.233 321.860 C 90.233 322.884,90.651 323.721,91.163 323.721 C 91.674 323.721,92.093 324.977,92.093 326.512 C 92.093 328.047,92.512 329.302,93.023 329.302 C 93.535 329.302,93.953 330.140,93.953 331.163 C 93.953 332.186,94.372 333.023,94.884 333.023 C 95.395 333.023,95.814 333.860,95.814 334.884 C 95.814 335.907,96.233 336.744,96.744 336.744 C 97.256 336.744,97.674 337.413,97.674 338.231 C 97.674 339.049,98.930 340.892,100.465 342.326 C 102.000 343.759,103.256 345.509,103.256 346.214 C 103.256 346.919,104.093 348.100,105.116 348.837 C 106.140 349.575,106.977 350.720,106.977 351.381 C 106.977 352.951,122.398 368.372,123.967 368.372 C 124.629 368.372,125.774 369.209,126.512 370.233 C 127.249 371.256,128.505 372.093,129.302 372.093 C 130.100 372.093,131.356 372.930,132.093 373.953 C 132.831 374.977,134.179 375.814,135.089 375.814 C 135.999 375.814,136.744 376.233,136.744 376.744 C 136.744 377.256,137.581 377.674,138.605 377.674 C 139.628 377.674,140.465 378.093,140.465 378.605 C 140.465 379.116,141.302 379.535,142.326 379.535 C 143.349 379.535,144.186 379.953,144.186 380.465 C 144.186 380.977,145.023 381.395,146.047 381.395 C 147.070 381.395,147.907 381.814,147.907 382.326 C 147.907 382.837,149.163 383.256,150.698 383.256 C 152.233 383.256,153.488 383.674,153.488 384.186 C 153.488 384.698,154.744 385.116,156.279 385.116 C 157.814 385.116,159.070 385.535,159.070 386.047 C 159.070 386.558,160.744 386.977,162.791 386.977 C 164.837 386.977,166.512 387.395,166.512 387.907 C 166.512 388.439,169.302 388.837,173.023 388.837 C 176.744 388.837,179.535 389.236,179.535 389.767 C 179.535 390.346,184.806 390.698,193.488 390.698 C 202.171 390.698,207.442 390.346,207.442 389.767 C 207.442 389.256,209.535 388.837,212.093 388.837 C 214.651 388.837,216.744 388.419,216.744 387.907 C 216.744 387.395,218.419 386.977,220.465 386.977 C 222.512 386.977,224.186 386.558,224.186 386.047 C 224.186 385.535,225.023 385.116,226.047 385.116 C 227.070 385.116,227.907 384.698,227.907 384.186 C 227.907 383.674,229.163 383.256,230.698 383.256 C 232.233 383.256,233.488 382.837,233.488 382.326 C 233.488 381.814,234.158 381.395,234.976 381.395 C 235.794 381.395,237.636 380.140,239.070 378.605 C 240.504 377.070,242.597 375.814,243.721 375.814 C 244.845 375.814,246.938 374.558,248.372 373.023 C 249.806 371.488,251.472 370.233,252.074 370.233 C 252.676 370.233,254.778 368.558,256.744 366.512 C 260.786 362.305,261.395 362.051,261.395 364.574 C 261.395 365.554,261.919 366.569,262.558 366.828 C 263.434 367.184,263.376 367.548,262.326 368.301 C 261.085 369.191,261.085 369.406,262.326 370.233 C 263.566 371.059,263.566 371.274,262.326 372.164 C 261.275 372.918,261.217 373.281,262.093 373.637 C 262.780 373.916,263.256 375.815,263.256 378.283 C 263.256 385.150,263.138 385.116,286.910 385.116 L 307.907 385.116 307.907 326.512 C 307.907 288.062,307.587 267.907,306.977 267.907 C 306.434 267.907,306.047 264.806,306.047 260.465 C 306.047 256.124,305.659 253.023,305.116 253.023 C 304.605 253.023,304.186 251.349,304.186 249.302 C 304.186 247.256,303.767 245.581,303.256 245.581 C 302.744 245.581,302.326 244.326,302.326 242.791 C 302.326 241.256,301.907 240.000,301.395 240.000 C 300.884 240.000,300.465 238.744,300.465 237.209 C 300.465 235.674,300.047 234.419,299.535 234.419 C 299.023 234.419,298.605 233.581,298.605 232.558 C 298.605 231.535,298.186 230.698,297.674 230.698 C 297.163 230.698,296.744 229.860,296.744 228.837 C 296.744 227.814,296.326 226.977,295.814 226.977 C 295.302 226.977,294.884 226.232,294.884 225.322 C 294.884 224.411,294.047 223.063,293.023 222.326 C 292.000 221.588,291.163 220.240,291.163 219.330 C 291.163 218.419,290.744 217.674,290.233 217.674 C 289.721 217.674,289.302 216.930,289.302 216.019 C 289.302 215.109,288.465 213.761,287.442 213.023 C 286.419 212.286,285.581 211.030,285.581 210.233 C 285.581 209.435,284.744 208.179,283.721 207.442 C 282.698 206.704,281.860 205.559,281.860 204.896 C 281.860 203.325,268.303 189.767,266.732 189.767 C 266.069 189.767,264.924 188.930,264.186 187.907 C 263.449 186.884,262.100 186.047,261.190 186.047 C 260.280 186.047,259.535 185.628,259.535 185.116 C 259.535 184.605,258.698 184.186,257.674 184.186 C 256.651 184.186,255.814 183.767,255.814 183.256 C 255.814 182.744,255.069 182.326,254.159 182.326 C 253.249 182.326,251.900 181.488,251.163 180.465 C 250.425 179.442,249.077 178.605,248.167 178.605 C 247.256 178.605,246.512 178.186,246.512 177.674 C 246.512 177.163,245.674 176.744,244.651 176.744 C 243.628 176.744,242.791 176.326,242.791 175.814 C 242.791 175.302,241.953 174.884,240.930 174.884 C 239.907 174.884,239.070 174.465,239.070 173.953 C 239.070 173.442,238.233 173.023,237.209 173.023 C 236.186 173.023,235.349 172.605,235.349 172.093 C 235.349 171.581,234.093 171.163,232.558 171.163 C 231.023 171.163,229.767 170.744,229.767 170.233 C 229.767 169.721,228.093 169.302,226.047 169.302 C 224.000 169.302,222.326 168.884,222.326 168.372 C 222.326 167.860,220.233 167.442,217.674 167.442 C 215.116 167.442,213.023 167.023,213.023 166.512 C 213.023 165.924,206.512 165.581,195.349 165.581 C 184.186 165.581,177.674 165.924,177.674 166.512 M198.140 205.581 C 198.140 206.113,200.930 206.512,204.651 206.512 C 208.372 206.512,211.163 206.910,211.163 207.442 C 211.163 207.953,212.419 208.372,213.953 208.372 C 215.488 208.372,216.744 208.791,216.744 209.302 C 216.744 209.814,218.000 210.233,219.535 210.233 C 221.070 210.233,222.326 210.651,222.326 211.163 C 222.326 211.674,223.163 212.093,224.186 212.093 C 225.209 212.093,226.047 212.512,226.047 213.023 C 226.047 213.535,226.716 213.953,227.534 213.953 C 228.352 213.953,230.194 215.209,231.628 216.744 C 233.062 218.279,234.702 219.535,235.272 219.535 C 236.725 219.535,250.233 233.194,250.233 234.663 C 250.233 235.326,251.070 236.472,252.093 237.209 C 253.116 237.947,253.953 239.295,253.953 240.205 C 253.953 241.116,254.372 241.860,254.884 241.860 C 255.395 241.860,255.814 243.535,255.814 245.581 C 255.814 247.628,256.233 249.302,256.744 249.302 C 257.256 249.302,257.674 250.558,257.674 252.093 C 257.674 253.628,258.093 254.884,258.605 254.884 C 259.116 254.884,259.535 256.558,259.535 258.605 C 259.535 260.651,259.953 262.326,260.465 262.326 C 261.051 262.326,261.395 268.527,261.395 279.070 C 261.395 289.612,261.051 295.814,260.465 295.814 C 259.953 295.814,259.535 297.488,259.535 299.535 C 259.535 301.581,259.116 303.256,258.605 303.256 C 258.093 303.256,257.674 304.512,257.674 306.047 C 257.674 307.581,257.256 308.837,256.744 308.837 C 256.233 308.837,255.814 309.674,255.814 310.698 C 255.814 311.721,255.395 312.558,254.884 312.558 C 254.372 312.558,253.953 313.303,253.953 314.213 C 253.953 315.124,253.116 316.472,252.093 317.209 C 251.070 317.947,250.233 319.119,250.233 319.813 C 250.233 320.508,248.558 322.685,246.512 324.651 C 244.465 326.617,242.791 328.697,242.791 329.272 C 242.791 330.638,238.531 334.884,237.160 334.884 C 236.574 334.884,234.922 336.140,233.488 337.674 C 232.055 339.209,230.212 340.465,229.394 340.465 C 228.576 340.465,227.907 340.884,227.907 341.395 C 227.907 341.907,227.070 342.326,226.047 342.326 C 225.023 342.326,224.186 342.744,224.186 343.256 C 224.186 343.767,223.349 344.186,222.326 344.186 C 221.302 344.186,220.465 344.605,220.465 345.116 C 220.465 345.628,219.628 346.047,218.605 346.047 C 217.581 346.047,216.744 346.465,216.744 346.977 C 216.744 347.488,215.488 347.907,213.953 347.907 C 212.419 347.907,211.163 348.326,211.163 348.837 C 211.163 349.354,208.682 349.767,205.581 349.767 C 202.481 349.767,200.000 350.181,200.000 350.698 C 200.000 351.214,197.519 351.628,194.419 351.628 C 191.318 351.628,188.837 351.214,188.837 350.698 C 188.837 350.181,186.357 349.767,183.256 349.767 C 180.155 349.767,177.674 349.354,177.674 348.837 C 177.674 348.326,176.000 347.907,173.953 347.907 C 171.907 347.907,170.233 347.488,170.233 346.977 C 170.233 346.465,169.395 346.047,168.372 346.047 C 167.349 346.047,166.512 345.628,166.512 345.116 C 166.512 344.605,165.674 344.186,164.651 344.186 C 163.628 344.186,162.791 343.767,162.791 343.256 C 162.791 342.744,162.046 342.326,161.136 342.326 C 160.225 342.326,158.877 341.488,158.140 340.465 C 157.402 339.442,156.255 338.605,155.591 338.605 C 154.118 338.605,142.326 326.961,142.326 325.507 C 142.326 324.935,141.070 323.294,139.535 321.860 C 138.000 320.427,136.744 318.584,136.744 317.766 C 136.744 316.948,136.326 316.279,135.814 316.279 C 135.302 316.279,134.884 315.442,134.884 314.419 C 134.884 313.395,134.465 312.558,133.953 312.558 C 133.442 312.558,133.023 311.721,133.023 310.698 C 133.023 309.674,132.605 308.837,132.093 308.837 C 131.581 308.837,131.163 308.000,131.163 306.977 C 131.163 305.953,130.744 305.116,130.233 305.116 C 129.716 305.116,129.302 302.636,129.302 299.535 C 129.302 296.434,128.889 293.953,128.372 293.953 C 127.785 293.953,127.442 287.442,127.442 276.279 C 127.442 265.116,127.785 258.605,128.372 258.605 C 128.884 258.605,129.302 257.349,129.302 255.814 C 129.302 254.279,129.721 253.023,130.233 253.023 C 130.744 253.023,131.163 251.767,131.163 250.233 C 131.163 248.698,131.581 247.442,132.093 247.442 C 132.605 247.442,133.023 246.186,133.023 244.651 C 133.023 243.116,133.442 241.860,133.953 241.860 C 134.465 241.860,134.884 241.023,134.884 240.000 C 134.884 238.977,135.302 238.140,135.814 238.140 C 136.326 238.140,136.744 237.302,136.744 236.279 C 136.744 235.256,137.163 234.419,137.674 234.419 C 138.186 234.419,138.605 233.782,138.605 233.003 C 138.605 231.279,148.314 221.395,150.007 221.395 C 150.673 221.395,151.821 220.558,152.558 219.535 C 153.296 218.512,154.551 217.674,155.349 217.674 C 156.146 217.674,157.402 216.837,158.140 215.814 C 158.877 214.791,160.225 213.953,161.136 213.953 C 162.046 213.953,162.791 213.535,162.791 213.023 C 162.791 212.512,163.628 212.093,164.651 212.093 C 165.674 212.093,166.512 211.674,166.512 211.163 C 166.512 210.651,167.767 210.233,169.302 210.233 C 170.837 210.233,172.093 209.814,172.093 209.302 C 172.093 208.791,173.349 208.372,174.884 208.372 C 176.419 208.372,177.674 207.953,177.674 207.442 C 177.674 206.925,180.155 206.512,183.256 206.512 C 186.357 206.512,188.837 206.098,188.837 205.581 C 188.837 205.070,190.930 204.651,193.488 204.651 C 196.047 204.651,198.140 205.070,198.140 205.581 " stroke="none" fill="#000000" fill-rule="evenodd"></path></g></svg>